# xmcd
#
# Track frame offsets: 
#        150
#        16085
#        31920
#        43542
#        60082
#        70640
#        83752
#        96025
#        112947
#        127855
#        139562
#        154430
#
# Disc length: 2084 seconds
#
# Revision: 1
# Processed by: cddbd v1.5.1PL0 Copyright (c) Steve Scherf et al.
# Submitted via: ExactAudioCopy v0.95a5
#
DISCID=8208220c
DTITLE=Rhonda Vincent - One Step Ahead
DYEAR=2003
DGENRE=Bluegrass
TTITLE0=Kentucky Borderline
TTITLE1=You Can't Take It With You When You Go
TTITLE2=One Step Ahead Of The Blues (with Alison Krauss)
TTITLE3=Caught In The Crossfire
TTITLE4=Ridin' The Red Line
TTITLE5=Pathway Of Teardrops
TTITLE6=An Old Memory Found Its Way Back
TTITLE7=Missouri Moon
TTITLE8=Walking My Lord Up Calvary's Hill
TTITLE9=Fishers Of Men
TTITLE10=Frankie Bell
TTITLE11=The Martha White Song
EXTD=
EXTT0=
EXTT1=
EXTT2=
EXTT3=
EXTT4=
EXTT5=
EXTT6=
EXTT7=
EXTT8=
EXTT9=
EXTT10=
EXTT11=
PLAYORDER=
